<?xml version="1.0" encoding="UTF-8" standalone="no"?>
<!-- Created with Inkscape (http://www.inkscape.org/) -->

<svg
   width="9.0242529mm"
   height="9.0242548mm"
   viewBox="0 0 9.0242529 9.0242548"
   version="1.1"
   id="svg1"
   xmlns="http://www.w3.org/2000/svg"
   xmlns:svg="http://www.w3.org/2000/svg">
  <defs
     id="defs1" />
  <g
     id="layer1"
     transform="translate(-91.016667,-88.9)">
    <path
       id="path1"
       style="fill:#be0000;fill-opacity:1;stroke-width:0.15;stroke-linecap:square"
       d="m 95.528536,88.9 a 4.512001,4.512001 0 0 0 -4.511869,4.511869 4.512001,4.512001 0 0 0 4.511869,4.512386 4.512001,4.512001 0 0 0 4.512384,-4.512386 A 4.512001,4.512001 0 0 0 95.528536,88.9 Z m -0.04289,1.910994 a 0.24983649,0.25021245 0 0 1 0.168465,0.02946 l 2.035534,1.176672 a 0.24983649,0.25021245 0 0 1 0.125057,0.216525 v 2.354895 a 0.24983649,0.25021245 0 0 1 -0.125057,0.218591 l -2.02985,1.173055 a 0.25,0.25 0 0 1 -0.08165,0.03101 0.24983649,0.25021245 0 0 1 -0.01654,0.0021 0.25,0.25 0 0 1 -0.03256,0.0041 0.25,0.25 0 0 1 -0.03204,-0.0041 0.24983649,0.25021245 0 0 1 -0.01705,-0.0021 0.25,0.25 0 0 1 -0.08113,-0.03101 L 93.366911,94.807133 A 0.24983649,0.25021245 0 0 1 93.241854,94.588542 V 92.23468 a 0.25,0.25 0 0 1 0,-10e-4 0.24983649,0.25021245 0 0 1 5.17e-4,-0.0026 0.25,0.25 0 0 1 0.01344,-0.07545 0.24983649,0.25021245 0 0 1 0.0078,-0.0186 0.25,0.25 0 0 1 0.01189,-0.02739 0.25,0.25 0 0 1 0.01705,-0.02274 0.24983649,0.25021245 0 0 1 0.0155,-0.02015 0.25,0.25 0 0 1 0.05891,-0.04961 l 2.037602,-1.176672 a 0.24983649,0.25021245 0 0 1 0.08113,-0.02946 z m 0.04341,0.533818 -1.537374,0.889351 1.662431,0.959115 a 0.25,0.25 0 0 1 0.120406,0.170015 0.25,0.25 0 0 1 0.0036,0.02429 0.25,0.25 0 0 1 10e-4,0.03669 v 1.90841 l 1.535823,-0.886767 v -2.065507 z m -1.786971,1.3224 v 1.778703 l 1.537374,0.887284 v -1.778703 z" />
  </g>
</svg>
