<?xml version="1.0" encoding="UTF-8" standalone="no"?>
<!-- Created with Inkscape (http://www.inkscape.org/) -->

<svg
   width="9.0240021mm"
   height="9.0240021mm"
   viewBox="0 0 9.0240021 9.0240021"
   version="1.1"
   id="svg1"
   xmlns="http://www.w3.org/2000/svg"
   xmlns:svg="http://www.w3.org/2000/svg">
  <defs
     id="defs1" />
  <g
     id="layer1"
     transform="translate(-100.488,-143.988)">
    <path
       id="path1"
       style="fill:#be0000;fill-opacity:1;stroke-width:0.15;stroke-linecap:square"
       d="M 104.99987 143.988 A 4.512001 4.512001 0 0 0 100.488 148.49987 A 4.512001 4.512001 0 0 0 104.99987 153.01226 A 4.512001 4.512001 0 0 0 109.51226 148.49987 A 4.512001 4.512001 0 0 0 104.99987 143.988 z M 103.30953 145.92328 L 103.71984 145.92328 L 103.71984 146.18787 L 103.53123 146.18787 C 103.39136 146.18787 103.29127 146.23251 103.23047 146.32171 C 103.17167 146.41089 103.1421 146.54327 103.1421 146.71962 L 103.1421 147.72317 C 103.1421 147.91371 103.08667 148.07888 102.97519 148.21875 C 102.8637 148.35861 102.71467 148.44792 102.52819 148.48643 L 102.52819 148.49522 C 102.71873 148.53782 102.86883 148.62713 102.97829 148.7629 C 103.08774 148.89872 103.1421 149.06603 103.1421 149.26468 L 103.1421 150.28012 C 103.1421 150.45444 103.17167 150.58625 103.23047 150.67545 C 103.29127 150.76666 103.39135 150.81239 103.53123 150.81239 L 103.71984 150.81239 L 103.71984 151.07697 L 103.30953 151.07697 C 103.00548 151.07697 102.77144 150.99896 102.60725 150.84288 C 102.44509 150.6868 102.36385 150.46676 102.36385 150.18297 L 102.36385 149.28587 C 102.36385 149.07101 102.31113 148.90905 102.20572 148.79959 C 102.10235 148.69013 101.93717 148.63148 101.71015 148.62338 L 101.71015 148.36448 C 101.9169 148.35848 102.07723 148.30575 102.19074 148.20635 C 102.30628 148.10499 102.36385 147.93927 102.36385 147.70819 L 102.36385 146.81418 C 102.36385 146.52838 102.44294 146.30833 102.60105 146.15428 C 102.75916 146.00022 102.99535 145.92328 103.30953 145.92328 z M 106.27989 145.92328 L 106.69072 145.92328 C 107.00491 145.92328 107.2411 146.00022 107.39921 146.15428 C 107.55731 146.30833 107.63588 146.52838 107.63588 146.81418 L 107.63588 147.70819 C 107.63588 147.93927 107.6929 148.10499 107.80642 148.20635 C 107.92196 148.30567 108.08284 148.3584 108.28959 148.36448 L 108.28959 148.62338 C 108.06054 148.63151 107.89481 148.69123 107.79143 148.80269 C 107.68806 148.91215 107.63588 149.07303 107.63588 149.28587 L 107.63588 150.18297 C 107.63588 150.46676 107.55409 150.6868 107.3899 150.84288 C 107.22571 150.99896 106.99274 151.07697 106.69072 151.07697 L 106.27989 151.07646 L 106.27989 150.81239 L 106.46851 150.81239 C 106.60838 150.81239 106.70791 150.76666 106.76669 150.67545 C 106.82749 150.58625 106.85764 150.45444 106.85764 150.28012 L 106.85764 149.26468 C 106.85764 149.06603 106.91251 148.89872 107.02197 148.7629 C 107.13143 148.6271 107.28153 148.53779 107.47207 148.49522 L 107.47207 148.48643 C 107.28558 148.4479 107.13656 148.36074 107.02507 148.22495 C 106.91359 148.08711 106.85764 147.91979 106.85764 147.72317 L 106.85764 146.71962 C 106.85764 146.54327 106.82749 146.41089 106.76669 146.32171 C 106.70789 146.23251 106.60836 146.18787 106.46851 146.18787 L 106.27989 146.18787 L 106.27989 145.92328 z M 104.97558 146.9966 C 105.11949 146.9966 105.23894 147.04611 105.33422 147.14543 C 105.43151 147.24273 105.48046 147.3611 105.48046 147.50096 C 105.48046 147.64083 105.43151 147.7608 105.33422 147.86012 C 105.23692 147.95742 105.11747 148.00584 104.97558 148.00584 C 104.83369 148.00584 104.71425 147.95742 104.61695 147.86012 C 104.52168 147.76282 104.4738 147.64286 104.4738 147.50096 C 104.4738 147.35908 104.52061 147.23963 104.61385 147.14233 C 104.70912 147.04504 104.82963 146.9966 104.97558 146.9966 z M 104.97558 148.9939 C 105.11544 148.9939 105.23433 149.04285 105.33163 149.14014 C 105.43095 149.23744 105.48046 149.35689 105.48046 149.49877 C 105.48046 149.63864 105.43151 149.75809 105.33422 149.85741 C 105.23692 149.95471 105.11747 150.00365 104.97558 150.00365 C 104.83369 150.00365 104.71425 149.95471 104.61695 149.85741 C 104.52168 149.76012 104.4738 149.64067 104.4738 149.49877 C 104.4738 149.35689 104.52168 149.23744 104.61695 149.14014 C 104.71425 149.04285 104.83369 148.9939 104.97558 148.9939 z " />
  </g>
</svg>
