<?xml version="1.0" encoding="UTF-8" standalone="no"?>
<!-- Created with Inkscape (http://www.inkscape.org/) -->

<svg
   width="11.121701mm"
   height="11.121701mm"
   viewBox="0 0 11.121701 11.121701"
   version="1.1"
   id="svg1"
   xml:space="preserve"
   xmlns="http://www.w3.org/2000/svg"
   xmlns:svg="http://www.w3.org/2000/svg"><defs
     id="defs1" /><g
     id="layer1"
     transform="translate(-99.439148,-142.93915)"><g
       style="fill:#ffffff;fill-opacity:1"
       id="g1"
       transform="matrix(0.00661458,0,0,0.00661458,101.825,151.675)"><path
         d="m 320,-240 h 320 v -80 H 320 Z m 0,-160 h 320 v -80 H 320 Z m -80,320 q -33,0 -56.5,-23.5 Q 160,-127 160,-160 v -640 q 0,-33 23.5,-56.5 Q 207,-880 240,-880 h 320 l 240,240 v 480 q 0,33 -23.5,56.5 Q 753,-80 720,-80 Z M 520,-600 V -800 H 240 v 640 H 720 V -600 Z M 240,-800 v 200 -200 640 z"
         id="path1"
         style="fill:#ffffff;fill-opacity:1" /></g></g></svg>
