<?xml version="1.0" encoding="UTF-8" standalone="no"?>
<!-- Created with Inkscape (http://www.inkscape.org/) -->

<svg
   width="9.0242596mm"
   height="9.0237398mm"
   viewBox="0 0 9.0242596 9.0237398"
   version="1.1"
   id="svg1"
   xmlns="http://www.w3.org/2000/svg"
   xmlns:svg="http://www.w3.org/2000/svg">
  <defs
     id="defs1" />
  <g
     id="layer1"
     transform="translate(-100.48792,-143.98811)">
    <path
       id="path1"
       style="fill:#be0000;fill-opacity:1;stroke-width:0.15;stroke-linecap:square"
       d="m 104.99979,143.98811 a 4.512001,4.512001 0 0 0 -4.51187,4.51187 4.512001,4.512001 0 0 0 4.51187,4.51187 4.512001,4.512001 0 0 0 4.51239,-4.51187 4.512001,4.512001 0 0 0 -4.51239,-4.51187 z m -0.45578,2.42931 h 0.90898 l -0.27956,2.80035 h -0.34985 z m 0.45578,3.15588 c 0.13986,0 0.25875,0.0484 0.35605,0.14573 0.0993,0.0973 0.14883,0.21726 0.14883,0.35915 0,0.13986 -0.0484,0.25931 -0.14573,0.35863 -0.0973,0.0973 -0.21726,0.14573 -0.35915,0.14573 -0.13986,0 -0.25931,-0.0484 -0.35863,-0.14573 -0.0973,-0.0973 -0.14573,-0.21674 -0.14573,-0.35863 0,-0.13986 0.0484,-0.25875 0.14573,-0.35605 0.0973,-0.0993 0.21674,-0.14883 0.35863,-0.14883 z" />
  </g>
</svg>
