<?xml version="1.0" encoding="UTF-8" standalone="no"?>
<!-- Created with Inkscape (http://www.inkscape.org/) -->

<svg
   width="9.0240021mm"
   height="9.0240021mm"
   viewBox="0 0 9.0240021 9.0240021"
   version="1.1"
   id="svg1"
   xml:space="preserve"
   xmlns="http://www.w3.org/2000/svg"
   xmlns:svg="http://www.w3.org/2000/svg"><defs
     id="defs1" /><g
     id="layer1"
     transform="translate(-100.54167,-141.81667)"><path
       id="path1-5"
       style="fill:#be0000;fill-opacity:1;stroke-width:0.15;stroke-linecap:square"
       d="M 105.05354 141.81667 A 4.512001 4.512001 0 0 0 100.54167 146.32854 A 4.512001 4.512001 0 0 0 104.57088 150.8063 L 104.57088 148.90926 C 104.16143 148.79692 103.81795 148.57208 103.54097 148.23488 C 103.26398 147.89767 103.12549 147.5042 103.12549 147.05459 L 103.30739 143.68271 L 104.08926 143.68271 L 104.08926 147.05459 L 104.57088 147.05459 L 104.66183 143.68271 L 105.44266 143.68271 L 105.53413 147.05459 L 106.01575 147.05459 L 106.01575 143.68271 L 106.79762 143.68271 L 106.97952 147.05459 C 107.00372 147.50355 106.84096 147.89767 106.56404 148.23488 C 106.28704 148.57208 105.94358 148.79685 105.53413 148.90926 L 105.53413 150.8063 A 4.512001 4.512001 0 0 0 109.56593 146.32854 A 4.512001 4.512001 0 0 0 105.05354 141.81667 z " /></g></svg>
