<?xml version="1.0" encoding="UTF-8" standalone="no"?>
<!-- Created with Inkscape (http://www.inkscape.org/) -->

<svg
   width="9.0240021mm"
   height="9.0240021mm"
   viewBox="0 0 9.0240021 9.0240021"
   version="1.1"
   id="svg1"
   xmlns="http://www.w3.org/2000/svg"
   xmlns:svg="http://www.w3.org/2000/svg">
  <defs
     id="defs1" />
  <g
     id="layer1"
     transform="translate(-149.48959,-86.254166)">
    <path
       id="path1"
       style="fill:#be0000;fill-opacity:1;stroke-width:0.15;stroke-linecap:square"
       d="M 154.00146 86.254166 A 4.512001 4.512001 0 0 0 149.48959 90.766035 A 4.512001 4.512001 0 0 0 154.00146 95.278421 A 4.512001 4.512001 0 0 0 158.51385 90.766035 A 4.512001 4.512001 0 0 0 154.00146 86.254166 z M 152.22999 89.270003 C 152.32664 89.270003 152.41098 89.281286 152.48321 89.303592 L 152.42119 89.657059 L 152.31887 89.657059 L 152.29975 89.478775 C 152.27742 89.456469 152.248 89.445186 152.21087 89.445186 C 152.1546 89.445186 152.10901 89.474132 152.07393 89.531485 C 152.03886 89.587779 152.00844 89.683396 151.98298 89.81829 L 151.93699 90.069954 L 152.26513 90.069954 L 152.23619 90.235835 L 151.90805 90.235835 L 151.55458 92.262068 L 151.12567 92.262068 L 151.47965 90.235835 L 151.22127 90.235835 L 151.24039 90.125764 L 151.50962 90.063753 L 151.54631 89.868932 C 151.58558 89.658627 151.66208 89.506644 151.77576 89.412113 C 151.8894 89.317582 152.04092 89.270003 152.22999 89.270003 z M 153.49503 89.303592 L 153.45989 89.500996 C 153.3165 89.59659 153.19392 89.735852 153.09195 89.918542 C 152.99105 90.101232 152.90916 90.338552 152.84649 90.630643 C 152.78382 90.922734 152.75244 91.171339 152.75244 91.376334 C 152.75244 91.704538 152.83775 91.944816 153.00876 92.096703 L 152.97413 92.262068 C 152.76595 92.142045 152.61345 91.998877 152.5168 91.83212 C 152.4212 91.665363 152.37313 91.461379 152.37313 91.220271 C 152.37313 91.040768 152.39668 90.84023 152.44341 90.618241 C 152.49121 90.396251 152.55691 90.206481 152.64082 90.049283 C 152.72579 89.891023 152.83416 89.753713 152.96586 89.637939 C 153.09863 89.521103 153.27516 89.409808 153.49503 89.303592 z M 155.20604 89.303592 C 155.41953 89.428926 155.57301 89.574075 155.66647 89.738708 C 155.76101 89.902278 155.80858 90.103305 155.80858 90.342289 C 155.80858 90.517543 155.78455 90.716128 155.73675 90.938118 C 155.69002 91.159044 155.62481 91.349304 155.5409 91.508626 C 155.45699 91.667948 155.34911 91.806235 155.21741 91.923071 C 155.0857 92.039907 154.90868 92.152667 154.68669 92.262068 L 154.72028 92.064664 C 154.86155 91.969071 154.98266 91.831273 155.08356 91.651769 C 155.18553 91.473329 155.26888 91.236496 155.33368 90.941218 C 155.39848 90.645941 155.43083 90.392942 155.43083 90.181575 C 155.43083 89.856558 155.34649 89.619237 155.17761 89.469474 L 155.20604 89.303592 z M 156.61267 90.037914 C 156.68808 90.037914 156.75085 90.063899 156.80077 90.115946 C 156.85177 90.166932 156.87725 90.229213 156.87725 90.302498 C 156.87725 90.375786 156.85177 90.438555 156.80077 90.4906 C 156.74977 90.541587 156.687 90.567081 156.61267 90.567081 C 156.53832 90.567081 156.47607 90.541587 156.42508 90.4906 C 156.37515 90.439613 156.35015 90.376844 156.35015 90.302498 C 156.35015 90.228147 156.37415 90.165378 156.42302 90.114395 C 156.47295 90.063409 156.53621 90.037914 156.61267 90.037914 z M 153.48883 90.069954 L 153.96477 90.069954 L 154.2278 90.587752 L 154.39058 90.452359 C 154.44265 90.409873 154.48139 90.371626 154.50685 90.337638 C 154.53339 90.302584 154.54665 90.268759 154.54665 90.235835 C 154.54665 90.205035 154.5172 90.183933 154.4588 90.173307 L 154.47792 90.069954 L 154.81743 90.069954 C 154.83976 90.086947 154.85102 90.109487 154.85102 90.138167 C 154.85102 90.217828 154.77746 90.318844 154.63088 90.440991 L 154.29963 90.718493 L 154.66292 91.430594 L 154.79986 91.464184 L 154.78229 91.567537 L 154.30118 91.567537 L 153.99836 90.971708 L 153.73533 91.191332 C 153.69706 91.224259 153.66764 91.252715 153.64644 91.276082 C 153.62624 91.298388 153.61102 91.31849 153.60148 91.336543 C 153.59302 91.353536 153.58908 91.375102 153.58908 91.401655 C 153.58908 91.433522 153.61114 91.454631 153.65574 91.464184 L 153.63662 91.567537 L 153.28471 91.567537 C 153.26771 91.55373 153.25939 91.530674 153.25939 91.498807 C 153.25939 91.461634 153.27603 91.421434 153.31003 91.377884 C 153.3451 91.333278 153.401 91.279353 153.47746 91.21562 L 153.93015 90.834765 L 153.6082 90.213097 L 153.47126 90.173307 L 153.48883 90.069954 z M 156.39149 91.084879 C 156.46478 91.084879 156.52707 91.11038 156.57805 91.16136 C 156.63011 91.212347 156.65608 91.275116 156.65608 91.349462 C 156.65608 91.422751 156.6306 91.485003 156.5796 91.537048 C 156.5286 91.588034 156.46583 91.613529 156.39149 91.613529 C 156.3182 91.613529 156.25543 91.588034 156.20339 91.537048 C 156.15239 91.486068 156.12691 91.423816 156.12691 91.349462 C 156.12691 91.276174 156.15239 91.213894 156.20339 91.16291 C 156.25439 91.110864 156.31716 91.084879 156.39149 91.084879 z " />
  </g>
</svg>
