<?xml version="1.0" encoding="UTF-8" standalone="no"?>
<!-- Created with Inkscape (http://www.inkscape.org/) -->

<svg
   width="9.0240021mm"
   height="9.0240021mm"
   viewBox="0 0 9.0240021 9.0240021"
   version="1.1"
   id="svg1"
   sodipodi:docname="inheritance.svg"
   inkscape:version="1.4 (e7c3feb100, 2024-10-09)"
   xmlns:inkscape="http://www.inkscape.org/namespaces/inkscape"
   xmlns:sodipodi="http://sodipodi.sourceforge.net/DTD/sodipodi-0.dtd"
   xmlns="http://www.w3.org/2000/svg"
   xmlns:svg="http://www.w3.org/2000/svg">
  <sodipodi:namedview
     id="namedview1"
     pagecolor="#ffffff"
     bordercolor="#000000"
     borderopacity="0.25"
     inkscape:showpageshadow="2"
     inkscape:pageopacity="0.0"
     inkscape:pagecheckerboard="0"
     inkscape:deskcolor="#d1d1d1"
     inkscape:document-units="mm"
     inkscape:zoom="16"
     inkscape:cx="9.71875"
     inkscape:cy="14.15625"
     inkscape:window-width="2560"
     inkscape:window-height="1376"
     inkscape:window-x="0"
     inkscape:window-y="0"
     inkscape:window-maximized="1"
     inkscape:current-layer="layer1" />
  <defs
     id="defs1" />
  <g
     inkscape:label="Layer 1"
     inkscape:groupmode="layer"
     id="layer1"
     transform="translate(-100.488,-143.988)">
    <path
       id="path1"
       style="fill:#be0000;fill-opacity:1;stroke-width:0.15;stroke-linecap:square"
       d="M 104.99987 143.988 A 4.512001 4.512001 0 0 0 100.488 148.49987 A 4.512001 4.512001 0 0 0 104.99987 153.01226 A 4.512001 4.512001 0 0 0 109.51226 148.49987 A 4.512001 4.512001 0 0 0 104.99987 143.988 z M 103.71416 145.668 A 0.19688448 0.19718075 0 0 1 103.84645 145.69126 L 105.45049 146.61885 A 0.19688448 0.19718075 0 0 1 105.54919 146.78886 L 105.54919 147.60535 L 106.15484 147.2555 A 0.19688448 0.19718075 0 0 1 106.21892 147.23173 A 0.19688448 0.19718075 0 0 1 106.35172 147.2555 L 107.95576 148.18258 A 0.19688448 0.19718075 0 0 1 108.05446 148.35311 L 108.05446 150.20933 A 0.19688448 0.19718075 0 0 1 107.95576 150.38089 L 106.35172 151.30848 A 0.19701333 0.19701333 0 0 1 106.35121 151.30848 A 0.19701333 0.19701333 0 0 1 106.25354 151.33536 A 0.19701333 0.19701333 0 0 1 106.16414 151.31107 A 0.19688448 0.19718075 0 0 1 106.15484 151.30848 L 104.54925 150.38089 A 0.19688448 0.19718075 0 0 1 104.45107 150.20933 L 104.45107 149.39491 L 103.84645 149.74424 A 0.19688448 0.19718075 0 0 1 103.83818 149.7463 A 0.19701333 0.19701333 0 0 1 103.74827 149.77111 A 0.19701333 0.19701333 0 0 1 103.65887 149.74682 A 0.19688448 0.19718075 0 0 1 103.64956 149.74424 L 102.04398 148.81716 A 0.19688448 0.19718075 0 0 1 101.94579 148.64508 L 101.94579 146.78886 A 0.19688448 0.19718075 0 0 1 101.94838 146.77904 A 0.19701333 0.19701333 0 0 1 101.97163 146.69326 A 0.19688448 0.19718075 0 0 1 101.97215 146.69119 A 0.19701333 0.19701333 0 0 1 101.97215 146.69068 A 0.19688448 0.19718075 0 0 1 101.97576 146.68706 A 0.19701333 0.19701333 0 0 1 102.03726 146.62557 A 0.19688448 0.19718075 0 0 1 102.04398 146.61885 L 103.64956 145.69126 A 0.19688448 0.19718075 0 0 1 103.71416 145.668 z M 103.74827 146.08865 L 102.53645 146.78938 L 103.84697 147.54541 A 0.19701333 0.19701333 0 0 1 103.94515 147.718 A 0.19701333 0.19701333 0 0 0 103.94515 147.71852 A 0.19701333 0.19701333 0 0 0 103.94515 147.71904 A 0.19701333 0.19701333 0 0 0 103.94515 147.71956 A 0.19701333 0.19701333 0 0 0 103.94515 147.72007 A 0.19701333 0.19701333 0 0 0 103.94515 147.72059 A 0.19701333 0.19701333 0 0 0 103.94515 147.72111 A 0.19701333 0.19701333 0 0 0 103.94515 147.72162 A 0.19701333 0.19701333 0 0 0 103.94515 147.72214 A 0.19701333 0.19701333 0 0 0 103.94515 147.72266 L 103.94515 149.23161 L 104.45107 148.93912 L 104.45107 148.35311 A 0.19688448 0.19718075 0 0 1 104.45365 148.34329 A 0.19701333 0.19701333 0 0 1 104.4769 148.25751 A 0.19688448 0.19718075 0 0 1 104.47742 148.25544 A 0.19701333 0.19701333 0 0 1 104.47742 148.25492 A 0.19688448 0.19718075 0 0 1 104.48104 148.25131 A 0.19701333 0.19701333 0 0 1 104.5415 148.19033 A 0.19688448 0.19718075 0 0 1 104.54925 148.18258 L 105.15542 147.83273 L 105.15542 146.90462 L 103.74827 146.08865 z M 102.33957 147.13096 L 102.33957 148.53243 L 103.55138 149.23161 L 103.55138 147.83014 L 102.33957 147.13096 z M 106.25354 147.65289 L 105.54919 148.0601 L 105.54919 148.64508 A 0.19688448 0.19718075 0 0 1 105.54919 148.64611 L 106.35224 149.10965 A 0.19701333 0.19701333 0 0 1 106.45043 149.2869 L 106.45043 150.79585 L 107.66069 150.09615 L 107.66069 148.46886 L 106.25354 147.65289 z M 105.15542 148.288 L 105.04173 148.35362 L 105.15542 148.41874 L 105.15542 148.288 z M 104.84484 148.69521 L 104.84484 148.71174 L 104.85931 148.70347 L 104.84484 148.69521 z M 105.2536 148.93085 L 104.84484 149.16701 L 104.84484 150.09615 L 106.05614 150.79534 L 106.05614 149.39439 L 105.2536 148.93085 z " />
    <path
       id="path9"
       style="fill:#be0000;stroke-linecap:square;stroke-linejoin:round;fill-opacity:1"
       d="M 104.88825 149.14221 L 104.40714 149.42023 L 104.43143 149.4626 L 104.47639 149.43728 L 104.86913 149.21094 L 104.91409 149.18562 L 104.88825 149.14221 z " />
    <path
       id="path6"
       style="fill:#be0000;stroke-linecap:square;stroke-linejoin:round;fill-opacity:1"
       d="M 105.10529 147.78312 L 105.10529 147.83221 L 105.10529 148.28696 L 105.10529 148.33812 L 105.15542 148.33812 L 105.15542 147.78312 L 105.10529 147.78312 z " />
    <path
       id="path7"
       style="fill:#be0000;stroke-linecap:square;stroke-linejoin:round;fill-opacity:1"
       d="M 105.54919 147.55471 L 105.54919 148.1092 L 105.59983 148.1092 L 105.59983 148.06062 L 105.59983 147.60535 L 105.59983 147.55471 L 105.54919 147.55471 z " />
    <path
       id="path10"
       style="fill:#be0000;stroke-linecap:square;stroke-linejoin:round;fill-opacity:1"
       d="M 104.80918 148.67402 L 104.42574 148.89674 L 104.38285 148.92 L 104.40817 148.96392 L 104.85931 148.70347 L 104.80918 148.67402 z " />
    <path
       id="path5"
       style="fill:#be0000;stroke-linecap:square;stroke-linejoin:round;fill-opacity:1"
       d="M 104.8159 148.67815 L 104.7911 148.72053 L 104.83399 148.74585 L 105.2288 148.97478 L 105.27169 149.0001 L 105.29701 148.95617 L 104.8159 148.67815 z " />
    <path
       id="path8"
       style="fill:#be0000;stroke-linecap:square;stroke-linejoin:round;fill-opacity:1"
       d="M 105.13888 148.34381 L 105.10891 148.39238 L 105.59156 148.6704 L 105.6174 148.62699 L 105.57451 148.60167 L 105.18177 148.36913 L 105.13888 148.34381 z " />
  </g>
</svg>
