<?xml version="1.0" encoding="UTF-8" standalone="no"?>
<!-- Created with Inkscape (http://www.inkscape.org/) -->

<svg
   width="9.0240021mm"
   height="9.0240021mm"
   viewBox="0 0 9.0240021 9.0240021"
   version="1.1"
   id="svg1"
   xmlns="http://www.w3.org/2000/svg"
   xmlns:svg="http://www.w3.org/2000/svg">
  <defs
     id="defs1" />
  <g
     id="layer1"
     transform="translate(41.539581,-80.433334)">
    <path
       id="path1"
       style="fill:#be0000;fill-opacity:1;stroke-width:0.15;stroke-linecap:square"
       d="M -37.027712 80.433334 A 4.512001 4.512001 0 0 0 -41.539581 84.945203 A 4.512001 4.512001 0 0 0 -37.027712 89.457589 A 4.512001 4.512001 0 0 0 -32.515326 84.945203 A 4.512001 4.512001 0 0 0 -37.027712 80.433334 z M -37.149668 82.287484 C -36.912523 82.287484 -36.7296 82.363023 -36.600864 82.514344 C -36.472128 82.663407 -36.378466 82.919667 -36.319745 83.283289 L -35.791095 86.607117 C -35.761735 86.776507 -35.650791 86.891336 -35.458815 86.952316 L -35.49964 87.172458 L -36.231378 87.172458 L -36.488727 85.163795 L -37.603387 87.172458 L -38.596091 87.172458 L -38.56922 87.02673 L -36.664943 83.774732 L -36.719203 83.378374 C -36.748563 83.136712 -36.798533 82.959549 -36.868548 82.846623 C -36.936304 82.731439 -37.035727 82.673507 -37.166721 82.673507 C -37.234477 82.673507 -37.292734 82.687232 -37.342421 82.714332 L -37.505202 82.995452 L -37.738779 82.995452 L -37.657647 82.358798 C -37.479224 82.311371 -37.310023 82.287484 -37.149668 82.287484 z " />
  </g>
</svg>
