<?xml version="1.0" encoding="UTF-8" standalone="no"?>
<!-- Created with Inkscape (http://www.inkscape.org/) -->

<svg
   width="9.0240021mm"
   height="9.0240021mm"
   viewBox="0 0 9.0240021 9.0240021"
   version="1.1"
   id="svg1"
   xmlns="http://www.w3.org/2000/svg"
   xmlns:svg="http://www.w3.org/2000/svg">
  <defs
     id="defs1" />
  <path
     id="path1"
     style="fill:#be0000;fill-opacity:1;stroke-width:0.15;stroke-linecap:square"
     d="M 4.5118693 0 A 4.512001 4.512001 0 0 0 0 4.5118693 A 4.512001 4.512001 0 0 0 4.5118693 9.0242554 A 4.512001 4.512001 0 0 0 9.0242554 4.5118693 A 4.512001 4.512001 0 0 0 4.5118693 0 z M 2.587439 2.1249349 L 3.8715983 2.1249349 L 3.8715983 2.3135539 L 3.300057 2.4293091 L 3.300057 6.5944295 L 3.8715983 6.7101847 L 3.8715983 6.8988037 L 2.587439 6.8988037 L 2.587439 2.1249349 z M 5.1516235 2.1249349 L 6.4362996 2.1249349 L 6.4362996 6.8988037 L 5.1516235 6.8988037 L 5.1516235 6.7101847 L 5.7236816 6.5949463 L 5.7236816 2.4293091 L 5.1516235 2.3135539 L 5.1516235 2.1249349 z " />
</svg>
