<?xml version="1.0" encoding="UTF-8" standalone="no"?>
<!-- Created with Inkscape (http://www.inkscape.org/) -->

<svg
   width="9.02425mm"
   height="9.0242596mm"
   viewBox="0 0 9.02425 9.0242596"
   version="1.1"
   id="svg1"
   xmlns="http://www.w3.org/2000/svg"
   xmlns:svg="http://www.w3.org/2000/svg">
  <defs
     id="defs1" />
  <g
     id="layer1"
     transform="translate(-115.62292,-119.0625)">
    <path
       id="path1"
       style="fill:#be0000;fill-opacity:1;stroke-width:0.15;stroke-linecap:square"
       d="m 120.13479,119.0625 a 4.512001,4.512001 0 0 0 -4.51187,4.51187 4.512001,4.512001 0 0 0 4.51187,4.51239 4.512001,4.512001 0 0 0 4.51238,-4.51239 4.512001,4.512001 0 0 0 -4.51238,-4.51187 z m -0.73794,1.2485 1.47639,0.85163 -1.47639,0.85163 v -0.47284 c -0.8318,0.30066 -1.42421,1.09547 -1.42421,2.03295 0,0.86071 0.49927,1.60144 1.22474,1.94975 l -0.50023,0.28836 c -0.7357,-0.47435 -1.22473,-1.30013 -1.22473,-2.23811 0,-1.21112 0.81489,-2.23543 1.92443,-2.55643 z m 2.17557,1.02475 c 0.73577,0.47433 1.22422,1.30059 1.22422,2.23862 -1e-5,1.21082 -0.81429,2.23519 -1.9234,2.55643 v 0.70694 l -1.47639,-0.85111 1.47639,-0.85163 v 0.4718 c 0.83151,-0.30082 1.42369,-1.09518 1.42369,-2.03243 0,-0.86071 -0.49927,-1.60196 -1.22473,-1.95027 z" />
  </g>
</svg>
