<?xml version="1.0" encoding="UTF-8" standalone="no"?>
<!-- Created with Inkscape (http://www.inkscape.org/) -->

<svg
   width="9.0240021mm"
   height="9.0240021mm"
   viewBox="0 0 9.0240021 9.0240021"
   version="1.1"
   id="svg1"
   inkscape:version="1.4 (e7c3feb100, 2024-10-09)"
   sodipodi:docname="module.svg"
   xmlns:inkscape="http://www.inkscape.org/namespaces/inkscape"
   xmlns:sodipodi="http://sodipodi.sourceforge.net/DTD/sodipodi-0.dtd"
   xmlns="http://www.w3.org/2000/svg"
   xmlns:svg="http://www.w3.org/2000/svg">
  <sodipodi:namedview
     id="namedview1"
     pagecolor="#ffffff"
     bordercolor="#000000"
     borderopacity="0.25"
     inkscape:showpageshadow="2"
     inkscape:pageopacity="0.0"
     inkscape:pagecheckerboard="0"
     inkscape:deskcolor="#d1d1d1"
     inkscape:document-units="mm"
     inkscape:zoom="8.3740179"
     inkscape:cx="-18.808176"
     inkscape:cy="16.65867"
     inkscape:window-width="2560"
     inkscape:window-height="1376"
     inkscape:window-x="0"
     inkscape:window-y="0"
     inkscape:window-maximized="1"
     inkscape:current-layer="layer1" />
  <defs
     id="defs1" />
  <g
     inkscape:label="Layer 1"
     inkscape:groupmode="layer"
     id="layer1"
     transform="translate(-100.488,-143.988)">
    <path
       id="path1"
       style="fill:#be0000;fill-opacity:1;stroke-width:0.15;stroke-linecap:square"
       d="M 104.99987 143.988 A 4.512001 4.512001 0 0 0 100.488 148.49987 A 4.512001 4.512001 0 0 0 104.99987 153.01226 A 4.512001 4.512001 0 0 0 109.51226 148.49987 A 4.512001 4.512001 0 0 0 104.99987 143.988 z M 104.96266 147.21416 C 105.12455 147.21416 105.25459 147.27671 105.35282 147.40123 C 105.45106 147.52576 105.5001 147.69458 105.5001 147.90766 C 105.5001 148.15394 105.45516 148.3807 105.36522 148.58824 C 105.27528 148.7944 105.14867 148.95776 104.9854 149.07813 C 104.82214 149.1985 104.63896 149.25848 104.43556 149.25848 C 104.31657 149.25848 104.20909 149.23593 104.11362 149.19027 L 104.11 149.25021 L 104.08468 149.44762 L 104.00613 149.93699 L 104.33789 149.98712 L 104.31309 150.12199 L 103.2005 150.12199 L 103.22582 149.98712 L 103.44131 149.93699 L 103.88573 147.44257 L 103.68005 147.39089 L 103.70486 147.26635 L 104.42109 147.26635 L 104.40869 147.55264 C 104.58164 147.32711 104.7662 147.21416 104.96266 147.21416 z M 105.7037 147.26635 L 106.3326 147.26635 L 106.64783 148.59237 L 107.02352 147.97019 C 107.06085 147.90932 107.09212 147.84267 107.11705 147.77071 C 107.14332 147.69738 107.15633 147.63946 107.15633 147.59657 C 107.15633 147.56057 107.15019 147.53137 107.13772 147.50923 C 107.12666 147.4857 107.11113 147.46604 107.09173 147.45084 C 107.07233 147.43564 107.03149 147.41923 106.96926 147.40123 L 106.99458 147.26635 L 107.47362 147.26635 C 107.50962 147.29815 107.52788 147.34173 107.52788 147.39709 C 107.52788 147.52162 107.47201 147.67353 107.35993 147.8534 L 106.44888 149.33961 C 106.31605 149.55684 106.20378 149.71627 106.11246 149.81865 C 106.02253 149.92243 105.9306 150.00069 105.83651 150.05326 C 105.74243 150.1072 105.64246 150.13439 105.5373 150.13439 C 105.46674 150.13439 105.41086 150.13146 105.36936 150.12613 C 105.32649 150.12213 105.2713 150.11185 105.20347 150.09512 L 105.29081 149.59283 L 105.41535 149.59283 L 105.45669 149.85431 C 105.49129 149.88611 105.53965 149.90237 105.6019 149.90237 C 105.68492 149.90237 105.77548 149.85418 105.87372 149.75871 C 105.97196 149.66324 106.09789 149.48621 106.25147 149.22747 L 105.80757 147.45342 L 105.68096 147.4033 L 105.7037 147.26635 z M 104.72392 147.5299 C 104.62983 147.5299 104.51346 147.62183 104.3751 147.80585 L 104.17201 148.95359 C 104.20521 148.98679 104.24469 149.0114 104.29035 149.028 C 104.33742 149.0446 104.37826 149.05281 104.41283 149.05281 C 104.51245 149.05281 104.6037 149.00445 104.68671 148.9076 C 104.77111 148.80936 104.83655 148.67795 104.8836 148.51331 C 104.93066 148.34727 104.95439 148.17571 104.95439 147.99861 C 104.95439 147.85333 104.93267 147.73952 104.8898 147.65651 C 104.84827 147.57211 104.79308 147.5299 104.72392 147.5299 z M 102.81654 148.58824 C 102.91201 148.58824 102.99301 148.62157 103.05942 148.68797 C 103.12721 148.75437 103.16122 148.83605 103.16122 148.93292 C 103.16122 149.02838 103.12789 149.11006 103.06149 149.17786 C 102.99509 149.24426 102.9134 149.27708 102.81654 149.27708 C 102.72107 149.27708 102.63939 149.24426 102.57159 149.17786 C 102.50519 149.11146 102.47237 149.02978 102.47237 148.93292 C 102.47237 148.83745 102.50519 148.75645 102.57159 148.69004 C 102.63799 148.62224 102.71967 148.58824 102.81654 148.58824 z " />
  </g>
</svg>
