<?xml version="1.0" encoding="UTF-8" standalone="no"?>
<!-- Created with Inkscape (http://www.inkscape.org/) -->

<svg
   width="9.0242596mm"
   height="9.0242596mm"
   viewBox="0 0 9.0242596 9.0242596"
   version="1.1"
   id="svg1"
   xmlns="http://www.w3.org/2000/svg"
   xmlns:svg="http://www.w3.org/2000/svg">
  <defs
     id="defs1" />
  <g
     id="layer1"
     transform="translate(-100.48787,-143.98787)">
    <path
       id="path1"
       style="fill:#be0000;fill-opacity:1;stroke-width:0.15;stroke-linecap:square"
       d="M 104.99974 143.98787 A 4.512001 4.512001 0 0 0 100.48787 148.49974 A 4.512001 4.512001 0 0 0 104.99974 153.01213 A 4.512001 4.512001 0 0 0 109.51213 148.49974 A 4.512001 4.512001 0 0 0 104.99974 143.98787 z M 106.40792 147.25847 L 107.07093 147.25899 L 107.07093 147.85327 C 107.07093 147.96006 107.06538 148.06859 107.05388 148.17883 C 107.09982 148.14093 107.1657 148.10956 107.2518 148.08426 C 107.33908 148.05786 107.42438 148.04499 107.50708 148.04499 C 107.74135 148.04499 107.91228 148.1086 108.02023 148.23722 C 108.12818 148.36583 108.18197 148.57083 108.18197 148.85217 C 108.18197 149.13007 108.11268 149.34803 107.97372 149.50536 C 107.83592 149.66272 107.64126 149.74152 107.38977 149.74152 C 107.20373 149.74152 106.93158 149.7018 106.57329 149.6237 L 106.57329 147.41092 L 106.40792 147.37061 L 106.40792 147.25847 z M 103.86027 147.59644 L 105.97074 147.59644 L 105.97074 149.70638 L 103.86027 149.70638 L 103.86027 147.59644 z M 104.11194 147.84758 L 104.11194 149.45472 L 105.71908 149.45472 L 105.71908 147.84758 L 104.11194 147.84758 z M 102.64484 148.05119 L 102.64536 148.05119 C 103.05038 148.05132 103.25308 148.20026 103.25308 148.49871 L 103.25308 149.55135 L 103.41482 149.5927 L 103.41482 149.70638 L 102.81899 149.70638 L 102.78127 149.58236 C 102.6917 149.64328 102.61079 149.68458 102.53839 149.70638 C 102.46604 149.72938 102.39278 149.74101 102.31928 149.74101 C 101.9851 149.74101 101.81802 149.5799 101.81802 149.25835 C 101.81802 149.13662 101.84304 149.03981 101.89244 148.96741 C 101.94184 148.89396 102.01286 148.84016 102.10586 148.80566 C 102.19888 148.77006 102.34529 148.7502 102.54511 148.7452 L 102.75543 148.74003 L 102.75543 148.50439 C 102.75543 148.30919 102.67528 148.21138 102.51565 148.21138 C 102.41919 148.21138 102.3116 148.24109 102.19216 148.30079 L 102.12653 148.50232 L 102.01284 148.50232 L 102.01284 148.11165 C 102.18624 148.08525 102.31375 148.06852 102.39525 148.06152 C 102.47662 148.05422 102.56004 148.0512 102.64484 148.05119 z M 107.34172 148.23516 L 107.34172 148.23567 C 107.29807 148.23567 107.25017 148.24088 107.19857 148.25118 C 107.14693 148.26038 107.10423 148.27508 107.07093 148.29458 L 107.07093 149.53223 C 107.14443 149.55013 107.23492 149.56014 107.34172 149.56014 C 107.45541 149.56014 107.53983 149.50502 107.59493 149.39478 C 107.65003 149.28339 107.67761 149.1016 107.67761 148.85011 C 107.67761 148.63766 107.65083 148.48227 107.59803 148.38347 C 107.54637 148.28476 107.46115 148.23516 107.34172 148.23516 z M 102.75543 148.89351 L 102.61074 148.89816 C 102.49935 148.90286 102.42179 148.93263 102.37819 148.98653 C 102.33569 149.04053 102.31412 149.12798 102.31412 149.24853 C 102.31412 149.34614 102.33181 149.41812 102.36631 149.46402 C 102.40077 149.50992 102.44557 149.53275 102.50067 149.53275 C 102.57876 149.53275 102.66353 149.51197 102.75543 149.47177 L 102.75543 148.89351 z " />
  </g>
</svg>
