<?xml version="1.0" encoding="UTF-8" standalone="no"?>
<!-- Created with Inkscape (http://www.inkscape.org/) -->

<svg
   width="9.0240021mm"
   height="9.0240021mm"
   viewBox="0 0 9.0240021 9.0240021"
   version="1.1"
   id="svg1"
   xmlns="http://www.w3.org/2000/svg"
   xmlns:svg="http://www.w3.org/2000/svg">
  <defs
     id="defs1" />
  <g
     id="layer1"
     transform="translate(-100.488,-143.988)">
    <path
       id="path1"
       style="fill:#be0000;fill-opacity:1;stroke-width:0.15;stroke-linecap:square"
       d="M 104.99987 143.988 A 4.512001 4.512001 0 0 0 100.488 148.49987 A 4.512001 4.512001 0 0 0 104.99987 153.01226 A 4.512001 4.512001 0 0 0 109.51226 148.49987 A 4.512001 4.512001 0 0 0 104.99987 143.988 z M 104.34616 145.92328 L 104.75699 145.92328 L 104.75699 146.18787 L 104.56837 146.18787 C 104.4285 146.18787 104.3279 146.23251 104.2671 146.32171 C 104.2083 146.41089 104.17925 146.54327 104.17925 146.71962 L 104.17925 147.72317 C 104.17925 147.91371 104.1233 148.07888 104.01182 148.21875 C 103.90033 148.35861 103.75129 148.44792 103.56481 148.48643 L 103.56481 148.49522 C 103.75535 148.53782 103.90546 148.62713 104.01492 148.7629 C 104.12438 148.89872 104.17925 149.06603 104.17925 149.26468 L 104.17925 150.28012 C 104.17925 150.45444 104.2083 150.58625 104.2671 150.67545 C 104.3279 150.76666 104.4285 150.81239 104.56837 150.81239 L 104.75699 150.81239 L 104.75699 151.07697 L 104.34616 151.07697 C 104.04211 151.07697 103.80807 150.99896 103.64388 150.84288 C 103.48172 150.6868 103.40048 150.46676 103.40048 150.18297 L 103.40048 149.28587 C 103.40048 149.07101 103.34776 148.90905 103.24235 148.79959 C 103.13897 148.69013 102.9738 148.63148 102.74678 148.62338 L 102.74678 148.36448 C 102.95353 148.35848 103.11385 148.30575 103.22737 148.20635 C 103.34291 148.10499 103.40048 147.93927 103.40048 147.70819 L 103.40048 146.81418 C 103.40048 146.52838 103.47957 146.30833 103.63768 146.15428 C 103.79579 146.00022 104.03198 145.92328 104.34616 145.92328 z M 105.24327 145.92328 L 105.65358 145.92328 C 105.96776 145.92328 106.20395 146.00022 106.36206 146.15428 C 106.52017 146.30833 106.59925 146.52838 106.59925 146.81418 L 106.59925 147.70819 C 106.59925 147.93927 106.65627 148.10551 106.76979 148.20686 C 106.88533 148.30618 107.04621 148.35891 107.25296 148.36499 L 107.25296 148.62338 C 107.02392 148.63151 106.85766 148.69123 106.75428 148.80269 C 106.6509 148.91215 106.59925 149.07303 106.59925 149.28587 L 106.59925 150.18297 C 106.59925 150.46676 106.51746 150.6868 106.35328 150.84288 C 106.18909 150.99896 105.9556 151.07697 105.65358 151.07697 L 105.24327 151.07697 L 105.24327 150.81239 L 105.43188 150.81239 C 105.57175 150.81239 105.67076 150.76666 105.72954 150.67545 C 105.79034 150.58625 105.82101 150.45444 105.82101 150.28012 L 105.82101 149.26468 C 105.82101 149.06603 105.87588 148.89872 105.98534 148.7629 C 106.0948 148.6271 106.24439 148.53779 106.43492 148.49522 L 106.43492 148.48643 C 106.24844 148.4479 106.09941 148.36074 105.98792 148.22495 C 105.87644 148.08711 105.82101 147.91979 105.82101 147.72317 L 105.82101 146.72013 C 105.82101 146.54379 105.79034 146.41089 105.72954 146.32171 C 105.67074 146.23251 105.57173 146.18787 105.43188 146.18787 L 105.24327 146.18787 L 105.24327 145.92328 z " />
  </g>
</svg>
