<?xml version="1.0" encoding="UTF-8" standalone="no"?>
<!-- Created with Inkscape (http://www.inkscape.org/) -->

<svg
   width="9.0240021mm"
   height="9.0240021mm"
   viewBox="0 0 9.0240021 9.0240021"
   version="1.1"
   id="svg1"
   xmlns="http://www.w3.org/2000/svg"
   xmlns:svg="http://www.w3.org/2000/svg">
  <defs
     id="defs1" />
  <g
     id="layer1"
     transform="translate(-100.488,-125.14793)">
    <path
       id="path1"
       style="fill:#be0000;fill-opacity:1;stroke-width:0.15;stroke-linecap:square"
       d="M 104.99987 125.14793 A 4.512001 4.512001 0 0 0 100.488 129.6598 A 4.512001 4.512001 0 0 0 104.99987 134.17219 A 4.512001 4.512001 0 0 0 109.51226 129.6598 A 4.512001 4.512001 0 0 0 104.99987 125.14793 z M 103.08681 127.97256 L 103.49557 127.97256 L 103.40152 128.4914 L 103.36586 128.67071 L 103.35759 128.70327 C 103.47264 128.55684 103.61566 128.48364 103.78599 128.48364 C 103.85846 128.48364 103.91658 128.50377 103.96066 128.54411 C 104.00472 128.58371 104.0268 128.63764 104.0268 128.70637 C 104.0268 128.74524 104.02035 128.79969 104.00768 128.86915 L 103.90123 129.46395 L 104.03145 129.49082 L 104.01647 129.56471 L 103.58394 129.56471 L 103.69866 128.92703 C 103.71512 128.84037 103.72294 128.78225 103.72294 128.75236 C 103.72294 128.6799 103.68913 128.64384 103.62114 128.64384 C 103.57408 128.64384 103.52099 128.67012 103.46198 128.72239 C 103.40298 128.77466 103.35913 128.83336 103.33072 128.89912 L 103.21186 129.56471 L 102.91421 129.56471 L 103.17621 128.07333 L 103.07441 128.04646 L 103.08681 127.97256 z M 106.77444 127.97256 L 107.1832 127.97256 L 107.0044 128.99679 L 107.39766 128.61128 L 107.30102 128.58545 L 107.31342 128.51155 L 107.69893 128.51155 L 107.68653 128.58545 L 107.58369 128.61025 L 107.31136 128.86088 L 107.55992 129.46395 L 107.64984 129.49082 L 107.63743 129.56471 L 107.28552 129.56471 L 107.09948 129.05725 L 106.97856 129.1358 L 106.90208 129.56471 L 106.60081 129.56471 L 106.86384 128.07333 L 106.761 128.04646 L 106.77444 127.97256 z M 102.62844 128.2728 L 102.79174 128.2728 L 102.74936 128.51155 L 102.92609 128.51155 L 102.90594 128.62782 L 102.72921 128.62782 L 102.62689 129.19833 C 102.61495 129.2596 102.60932 129.3043 102.60932 129.33269 C 102.60932 129.37229 102.61886 129.40105 102.63826 129.41899 C 102.65839 129.43692 102.68272 129.44586 102.71112 129.44586 C 102.73652 129.44586 102.77785 129.43632 102.83463 129.41692 L 102.86357 129.49547 C 102.82697 129.5216 102.78031 129.54368 102.72352 129.56161 C 102.66752 129.57881 102.61415 129.58745 102.56333 129.58745 C 102.48115 129.58745 102.41747 129.56792 102.37264 129.52906 C 102.32857 129.48946 102.30649 129.43219 102.30649 129.35749 C 102.30649 129.32316 102.31318 129.26951 102.32665 129.19626 L 102.43 128.62782 L 102.30081 128.62782 L 102.31321 128.55496 L 102.47237 128.51155 L 102.62844 128.2728 z M 106.2122 128.48364 C 106.28616 128.48364 106.34456 128.50347 106.3879 128.54307 C 106.43123 128.58267 106.45301 128.63827 106.45301 128.70999 C 106.45301 128.74885 106.44377 128.8173 106.42511 128.91514 L 106.32744 129.46395 L 106.45714 129.49082 L 106.44268 129.56471 L 106.01014 129.56471 L 106.12435 128.92754 C 106.14082 128.84088 106.14915 128.78225 106.14915 128.75236 C 106.14915 128.6799 106.11534 128.64384 106.04735 128.64384 C 106.00028 128.64384 105.9472 128.66961 105.88819 128.72187 C 105.82919 128.77414 105.78534 128.83336 105.75693 128.89912 L 105.63807 129.56471 L 105.3399 129.56471 L 105.50578 128.61335 L 105.40605 128.58545 L 105.42103 128.51155 L 105.79517 128.51155 L 105.78638 128.7074 C 105.90218 128.55799 106.04411 128.48364 106.2122 128.48364 z M 104.80505 128.48468 C 104.90814 128.48468 105.00175 128.5012 105.08617 128.5348 L 105.17815 128.49346 L 105.23861 128.49346 L 105.06757 129.46395 L 105.19004 129.50012 L 105.18074 129.56471 L 104.79213 129.56471 L 104.788 129.4102 C 104.74393 129.46547 104.69417 129.50932 104.63813 129.54146 C 104.58287 129.57286 104.52618 129.58849 104.46864 129.58849 C 104.37525 129.58849 104.30234 129.55495 104.25004 129.48772 C 104.19851 129.42048 104.17305 129.32716 104.17305 129.20763 C 104.17305 129.07689 104.20016 128.95566 104.2547 128.84435 C 104.30923 128.73229 104.38495 128.6443 104.48207 128.5808 C 104.57994 128.51653 104.68776 128.48468 104.80505 128.48468 z M 104.77301 128.59785 C 104.71774 128.59785 104.66661 128.62436 104.61953 128.67743 C 104.57246 128.7297 104.53503 128.80094 104.50739 128.89137 C 104.48053 128.98102 104.46709 129.07434 104.46709 129.17146 C 104.46709 129.2484 104.47993 129.30985 104.50533 129.35543 C 104.53146 129.40023 104.56413 129.4226 104.60299 129.4226 C 104.63286 129.4226 104.66561 129.40751 104.70221 129.37765 C 104.73881 129.34778 104.77178 129.31063 104.80092 129.26654 L 104.91202 128.63609 C 104.87842 128.61069 104.83204 128.59785 104.77301 128.59785 z M 104.92132 130.31971 C 105.04832 130.31971 105.15001 130.35966 105.22621 130.4396 C 105.30241 130.51953 105.34042 130.62655 105.34042 130.76102 C 105.34042 130.88205 105.31465 130.99325 105.26239 131.09485 C 105.21012 131.19645 105.13692 131.27665 105.04276 131.33567 C 104.94938 131.39393 104.84379 131.42352 104.7265 131.42352 L 104.7265 131.423 C 104.59949 131.423 104.49781 131.38304 104.42161 131.30311 C 104.34541 131.22318 104.30741 131.11616 104.30741 130.98168 C 104.30741 130.86066 104.33369 130.74945 104.38595 130.64785 C 104.43822 130.54625 104.51113 130.46635 104.60454 130.40807 C 104.69868 130.34907 104.80403 130.31971 104.92132 130.31971 z M 105.51818 130.34761 L 105.95072 130.34761 L 105.83651 130.98375 C 105.82004 131.06966 105.81171 131.12831 105.81171 131.15893 L 105.81119 131.15893 C 105.81119 131.2314 105.84553 131.26745 105.91351 131.26745 C 105.96131 131.26745 106.01496 131.24094 106.07474 131.18787 C 106.13454 131.13407 106.1773 131.07566 106.20341 131.01217 L 106.32227 130.34761 L 106.62044 130.34761 L 106.45456 131.29898 L 106.57652 131.32688 L 106.56205 131.40078 L 106.16517 131.40078 L 106.17447 131.20337 C 106.05868 131.35279 105.91675 131.42765 105.74866 131.42765 C 105.67321 131.42765 105.61399 131.40752 105.57141 131.36719 C 105.52881 131.32612 105.50785 131.26771 105.50785 131.19149 C 105.50785 131.17729 105.5099 131.15296 105.51457 131.11862 C 105.5199 131.08429 105.55957 130.86079 105.63342 130.44838 L 105.5032 130.42151 L 105.51818 130.34761 z M 103.293 130.34813 L 103.63251 130.34813 L 103.80304 131.06385 L 104.00561 130.72795 C 104.02581 130.69508 104.04286 130.65932 104.05626 130.62046 C 104.07046 130.58086 104.07744 130.54955 104.07744 130.52641 C 104.07744 130.50701 104.07436 130.49087 104.06763 130.47887 C 104.06163 130.4662 104.05329 130.45613 104.04282 130.44786 C 104.03236 130.43966 104.01028 130.43073 103.97668 130.42099 L 103.99011 130.34813 L 104.24901 130.34813 C 104.26841 130.36533 104.27795 130.38854 104.27795 130.41841 L 104.27847 130.41789 C 104.27847 130.48513 104.24805 130.56727 104.18752 130.66439 L 103.69556 131.46692 C 103.62384 131.58421 103.56347 131.67054 103.51417 131.72582 C 103.46564 131.78182 103.41565 131.82402 103.36483 131.85243 C 103.31403 131.88156 103.26038 131.89636 103.2036 131.89636 C 103.16546 131.89636 103.13505 131.89489 103.11265 131.89222 C 103.08951 131.89022 103.05991 131.88437 103.02325 131.87517 L 103.07027 131.60438 L 103.13745 131.60438 L 103.15967 131.74546 C 103.17834 131.76266 103.20462 131.7713 103.23822 131.7713 C 103.28302 131.7713 103.33191 131.74532 103.38498 131.69378 C 103.43805 131.64225 103.5062 131.5467 103.5891 131.40698 L 103.34932 130.4489 L 103.28059 130.42203 L 103.293 130.34813 z M 104.89703 130.43029 C 104.84997 130.43029 104.80331 130.45876 104.75699 130.51556 C 104.71139 130.57236 104.67425 130.64837 104.64589 130.74397 C 104.61822 130.8396 104.60454 130.93934 104.60454 131.04318 C 104.60454 131.12909 104.61822 131.19558 104.64589 131.24265 C 104.67355 131.28898 104.70903 131.31241 104.75234 131.31241 C 104.80014 131.31241 104.84652 131.28448 104.89135 131.22921 C 104.93615 131.17395 104.97163 131.0996 104.9978 131.00545 C 105.02394 130.91132 105.03708 130.80963 105.03708 130.70056 C 105.03708 130.52052 104.99041 130.43029 104.89703 130.43029 z " />
  </g>
</svg>
