<?xml version="1.0" encoding="UTF-8" standalone="no"?>
<!-- Created with Inkscape (http://www.inkscape.org/) -->

<svg
   width="9.0242596mm"
   height="9.0237398mm"
   viewBox="0 0 9.0242596 9.0237398"
   version="1.1"
   id="svg1"
   xmlns="http://www.w3.org/2000/svg"
   xmlns:svg="http://www.w3.org/2000/svg">
  <defs
     id="defs1" />
  <g
     id="layer1"
     transform="translate(-100.48792,-143.98811)">
    <path
       id="path1"
       style="fill:#be0000;fill-opacity:1;stroke-width:0.15;stroke-linecap:square"
       d="m 104.99979,143.98811 a 4.512001,4.512001 0 0 0 -4.51187,4.51187 4.512001,4.512001 0 0 0 4.51187,4.51187 4.512001,4.512001 0 0 0 4.51239,-4.51187 4.512001,4.512001 0 0 0 -4.51239,-4.51187 z m -0.99374,1.68879 v 0.34623 c -0.18447,0.13986 -0.33242,0.32063 -0.4439,0.54157 -0.1115,0.22094 -0.19379,0.47812 -0.24649,0.77204 -0.0528,0.29391 -0.0791,0.6802 -0.0791,1.15859 0,0.4804 0.0258,0.86724 0.0765,1.16117 0.0527,0.2939 0.13453,0.55269 0.24598,0.77566 0.11352,0.22297 0.26253,0.40429 0.447,0.54415 v 0.34675 c -0.40136,-0.21284 -0.71555,-0.44633 -0.94257,-0.6997 -0.22501,-0.25134 -0.39125,-0.54726 -0.49868,-0.8878 -0.10543,-0.34257 -0.15813,-0.75685 -0.15813,-1.24333 0,-0.48243 0.0527,-0.89401 0.15813,-1.23455 0.10743,-0.34055 0.27367,-0.63646 0.49868,-0.8878 0.22702,-0.25135 0.54121,-0.48215 0.94257,-0.69298 z m 1.98748,0 c 0.40541,0.2169 0.72069,0.45093 0.94568,0.70228 0.22501,0.24932 0.39016,0.54416 0.49558,0.8847 0.10543,0.33851 0.15813,0.74795 0.15813,1.22835 0,0.48445 -0.0527,0.89818 -0.15813,1.24075 -0.10542,0.34054 -0.27164,0.63645 -0.49868,0.8878 -0.22498,0.25338 -0.5392,0.48742 -0.94258,0.70228 v -0.34675 c 0.18446,-0.14188 0.33242,-0.32428 0.4439,-0.54725 0.11351,-0.22297 0.1958,-0.48231 0.2465,-0.77825 0.0527,-0.29797 0.0791,-0.68319 0.0791,-1.15548 0,-0.48039 -0.0264,-0.86777 -0.0791,-1.16169 -0.0527,-0.2939 -0.13505,-0.55002 -0.2465,-0.76894 -0.11148,-0.21891 -0.25944,-0.39967 -0.4439,-0.54157 z" />
  </g>
</svg>
