<?xml version="1.0" encoding="UTF-8" standalone="no"?>
<!-- Created with Inkscape (http://www.inkscape.org/) -->

<svg
   width="11.121701mm"
   height="11.121701mm"
   viewBox="0 0 11.121701 11.121701"
   version="1.1"
   id="svg1"
   xml:space="preserve"
   xmlns="http://www.w3.org/2000/svg"
   xmlns:svg="http://www.w3.org/2000/svg"><defs
     id="defs1" /><g
     id="layer1"
     transform="translate(-99.439148,-142.93915)"><g
       style="fill:#ffffff;fill-opacity:1"
       id="g2"
       transform="matrix(0.00661458,0,0,0.00661458,101.825,151.675)"><path
         d="M 380,-300 660,-480 380,-660 Z M 480,-80 Q 397,-80 324,-111.5 251,-143 197,-197 143,-251 111.5,-324 80,-397 80,-480 q 0,-83 31.5,-156 31.5,-73 85.5,-127 54,-54 127,-85.5 73,-31.5 156,-31.5 83,0 156,31.5 73,31.5 127,85.5 54,54 85.5,127 31.5,73 31.5,156 0,83 -31.5,156 -31.5,73 -85.5,127 -54,54 -127,85.5 Q 563,-80 480,-80 Z m 0,-80 q 134,0 227,-93 93,-93 93,-227 0,-134 -93,-227 -93,-93 -227,-93 -134,0 -227,93 -93,93 -93,227 0,134 93,227 93,93 227,93 z m 0,-320 z"
         id="path1-6"
         style="fill:#ffffff;fill-opacity:1" /></g></g></svg>
